# xmcd
#
# Track frame offsets: 
#        150
#        30655
#        48518
#        59561
#        85722
#        113388
#        133807
#        152191
#        187619
#        205841
#        220444
#        230345
#        256045
#        275566
#        295833
#        300370
#        314748
#        345356
#
# Disc length: 4790 seconds
#
# Revision: 12
# Processed by: cddbd v1.5.2PL0 Copyright (c) Steve Scherf et al.
# Submitted via: ExactAudioCopyFreeDBPlugin 1.0
#
DISCID=fb12b412
DTITLE=Yes - Tormato (Expanded and Remastered)
DYEAR=1978
DGENRE=Progressive Rock
TTITLE0=A.) Future Times B.) Rejoice (2004 Remaster)
TTITLE1=Don't Kill The Whale (2004 Remaster)
TTITLE2=Madrigal (2004 Remaster)
TTITLE3=Release, Release (2004 Remaster)
TTITLE4=Arriving UFO (2004 Remaster)
TTITLE5=Circus Of Heaven (2004 Remaster)
TTITLE6=Onward (2004 Remaster)
TTITLE7=On The Silent Wings Of Freedom (2004 Remaster)
TTITLE8=Abilene (B-Side To 'Don't Kill The Whale' Single) (2004 Remast
TTITLE8=er)
TTITLE9=Money (2004 Remaster)
TTITLE10=Picasso (Previously Unissued) (2004 Remaster)
TTITLE11=Some Are Born (Previously Unissued) (2004 Remaster)
TTITLE12=You Can Be Saved (Previously Unissued) (2004 Remaster)
TTITLE13=High (Previously Unissued) (2004 Remaster)
TTITLE14=Days (Demo) (2004 Remaster)
TTITLE15=Countryside (Previously Unissued) (2004 Remaster)
TTITLE16=Everybody's Song (Early Version Of 'Does It Really Happen) (2
TTITLE16=004 Remaster)
TTITLE17=Onward (Orchestral Version) (2004 Remaster)
EXTD=
EXTT0=
EXTT1=
EXTT2=
EXTT3=
EXTT4=
EXTT5=
EXTT6=
EXTT7=
EXTT8=
EXTT9=
EXTT10=
EXTT11=
EXTT12=
EXTT13=
EXTT14=
EXTT15=
EXTT16=
EXTT17=
PLAYORDER=
